{"title":"Bun B - Put It Down ft. Drake","uid":6089410,"size":28876866,"categoryP":"video","categoryS":"music_videos","magnet":"?xt=urn:btih:a4de2ac3abedaa5f3d69ed59fa3a8728c3940ea3&amp;dn=Bun+B+-+Put+It+Down+ft.+Drake&amp;tr=udp%3A%2F%2Ftracker.openbittorrent.com%3A80&amp;tr=udp%3A%2F%2Fopen.demonii.com%3A1337&amp;tr=udp%3A%2F%2Ftracker.coppersurfer.tk%3A6969&amp;tr=udp%3A%2F%2Fexodus.desync.com%3A6969","seeders":1,"leechers":0,"uploader":"kamikaz28","files":2,"time":1294481813,"description":"Bun B - Put It Down ft. Drake\n\nFormat                           : AVI\nFormat/Info                      : Audio Video Interleave\nFile size                        : 27.5 MiB\nDuration                         : 4mn 43s\nOverall bit rate                 : 816 Kbps\nWriting application              : Lavf51.7.0\n\nVideo\nID                               : 0\nFormat                           : MPEG-4 Visual\nFormat profile                   : Simple@L1\nFormat settings, BVOP            : No\nFormat settings, QPel            : No\nFormat settings, GMC             : No warppoints\nFormat settings, Matrix          : Default (H.263)\nCodec ID                         : DIVX\nCodec ID/Info                    : Project Mayo\nCodec ID/Hint                    : DivX 4\nDuration                         : 4mn 42s\nBit rate                         : 677 Kbps\nWidth                            : 528 pixels\nHeight                           : 304 pixels\nDisplay aspect ratio             : 16:9\nFrame rate                       : 25.000 fps\nColor space                      : YUV\nChroma subsampling               : 4:2:0\nBit depth                        : 8 bits\nScan type                        : Progressive\nCompression mode                 : Lossy\nBits/(Pixel*Frame)               : 0.169\nStream size                      : 22.8 MiB (83%)\nWriting library                  : Lavc51.28.0\n\nAudio\nID                               : 1\nFormat                           : MPEG Audio\nFormat version                   : Version 1\nFormat profile                   : Layer 3\nMode                             : Joint stereo\nMode extension                   : MS Stereo\nCodec ID                         : 55\nCodec ID/Hint                    : MP3\nDuration                         : 4mn 43s\nBit rate mode                    : Constant\nBit rate                         : 128 Kbps\nChannel(s)                       : 2 channels\nSampling rate                    : 44.1 KHz\nCompression mode                 : Lossy\nStream size                      : 4.32 MiB (16%)\nAlignment                        : Aligned on interleaves\nInterleave, duration             : 26 ms (0.65 video frame)\nInterleave, preload duration     : 522 ms\nWriting library                  : LAME3.96","torrent":{"xt":"urn:btih:a4de2ac3abedaa5f3d69ed59fa3a8728c3940ea3","amp;dn":"Bun+B+-+Put+It+Down+ft.+Drake","amp;tr":["udp%3A%2F%2Ftracker.openbittorrent.com%3A80","udp%3A%2F%2Fopen.demonii.com%3A1337","udp%3A%2F%2Ftracker.coppersurfer.tk%3A6969","udp%3A%2F%2Fexodus.desync.com%3A6969"],"infoHash":"a4de2ac3abedaa5f3d69ed59fa3a8728c3940ea3","infoHashBuffer":{"type":"Buffer","data":[164,222,42,195,171,237,170,95,61,105,237,89,250,58,135,40,195,148,14,163]},"announce":[],"urlList":[]}}